<svg width="22" height="21" viewBox="0 0 22 21" fill="none" xmlns="http://www.w3.org/2000/svg">
<path fill-rule="evenodd" clip-rule="evenodd" d="M0.503415 9.79071C0.796123 9.50966 1.1777 9.36866 1.56432 9.39869C1.95094 9.42872 2.31097 9.62733 2.56531 9.95088L8.30643 17.2555C8.56085 17.5797 8.68845 18.0024 8.66116 18.4307C8.63388 18.859 8.45394 19.2577 8.16093 19.5392C7.86792 19.8206 7.48584 19.9618 7.09875 19.9316C6.71166 19.9014 6.35126 19.7024 6.09684 19.3782L0.358644 12.0735C0.232636 11.9131 0.136423 11.7268 0.075501 11.5253C0.0145792 11.3238 -0.00985763 11.1109 0.00358629 10.8989C0.0170302 10.6869 0.0680914 10.48 0.153853 10.2898C0.239615 10.0997 0.358398 9.93006 0.503415 9.79071Z" fill="#338BD9"/>
<path fill-rule="evenodd" clip-rule="evenodd" d="M21.3371 0.526483C20.9502 0.153216 20.4457 -0.0342841 19.9343 0.00517189C19.423 0.0446279 18.9467 0.307813 18.61 0.736911L6.0151 16.8196C5.6786 17.2496 5.50973 17.8103 5.54564 18.3785C5.58155 18.9467 5.8193 19.4758 6.20658 19.8494C6.59386 20.2229 7.09896 20.4104 7.61075 20.3706C8.12254 20.3307 8.5991 20.0667 8.9356 19.6368L21.5266 3.55407C21.8626 3.12427 22.0312 2.56397 21.9953 1.99628C21.9594 1.42859 21.7219 0.899942 21.3351 0.526483H21.3371Z" fill="#338BD9"/>
</svg>
